<?xml version="1.0" encoding="UTF-8" standalone="no"?>
<svg width="600px" height="200px" viewBox="0 0 600 200" version="1.1" xmlns="http://www.w3.org/2000/svg" xmlns:xlink="http://www.w3.org/1999/xlink">
    <!-- Generator: Sketch 39.1 (31720) - http://www.bohemiancoding.com/sketch -->
    <title>Logo_Node1_FC_600width</title>
    <desc>Created with Sketch.</desc>
    <defs></defs>
    <g id="Page-1" stroke="none" stroke-width="1" fill="none" fill-rule="evenodd">
        <g id="Logo_Node1_FC_600width">
            <g id="Logo-Node1" transform="translate(47.000000, 48.000000)">
                <polygon id="Fill-1" fill="#383F51" points="67.4961705 -0.000117072283 67.4961705 51.6209548 28.6007745 -0.000117072283 -7.8030345e-05 -0.000117072283 -7.8030345e-05 100.682046 30.041995 100.682046 30.041995 49.1932659 70.4402554 100.682046 97.928005 100.682046 97.928005 -0.000117072283"></polygon>
                <g id="Group-10" transform="translate(122.117490, -0.000000)">
                    <path d="M133.041738,75.3165019 L145.874609,75.3165019 C157.870604,75.3165019 165.581173,65.2674074 165.581173,50.5557141 C165.581173,35.7015829 157.155846,25.3656613 144.303858,25.3656613 L133.041738,25.3656613 L133.041738,75.3165019 Z M145.017836,0 C178.003994,0 199.423323,19.8468739 199.423323,50.2700577 C199.423323,80.6920709 177.575997,100.682163 143.733456,100.682163 L99.8788417,100.682163 L99.8788417,0 L145.017836,0 Z" id="Fill-2" fill="#383F51"></path>
                    <polygon id="Fill-4" fill="#383F51" points="255.54938 25.3656613 255.54938 37.4631305 302.367587 37.4631305 302.367587 63.2190327 255.54938 63.2190327 255.54938 75.3165019 307.049408 75.3165019 307.049408 100.682163 222.776635 100.682163 222.776635 0 307.049408 0 307.049408 25.3656613"></polygon>
                    <polygon id="Fill-6" fill="#FFD506" points="348.405491 100.682163 348.405491 25.3656613 331.628967 25.3656613 331.628967 0 381.568387 0 381.568387 100.682163"></polygon>
                    <path d="M38.2661593,88.0381225 C59.2750494,88.0381225 76.3059525,71.0033249 76.3059525,49.9896306 C76.3059525,28.9759363 59.2750494,11.9411387 38.2661593,11.9411387 C17.2572691,11.9411387 0.226366031,28.9759363 0.226366031,49.9896306 C0.226366031,71.0033249 17.2572691,88.0381225 38.2661593,88.0381225" id="Fill-8" fill="#383F51"></path>
                </g>
            </g>
        </g>
    </g>
</svg>